P2
# courtesy of Cz Jen, https://www.pexels.com/photo/grayscale-photo-of-a-zinnia-flower-9578390/
8 8
255
10 10 20 20 30 30 30 30
10 10 20 20 30 30 30 30
11 22 11 22 30 30 30 30
11 22 11 22 30 30 30 30
10 10 20 20 30 30 30 30
10 10 20 20 30 30 30 30
11 22 11 22 30 30 30 30
11 22 11 22 30 30 30 30