P2
# This generated pgm has been brought to you through Emile Bonmarriage and Lucas Pereira's hardwork
8 8
255
10 10 20 20 30 30 30 30 
10 10 20 20 30 30 30 30 
16 16 16 16 30 30 30 30 
16 16 16 16 30 30 30 30 
10 10 20 20 30 30 30 30 
10 10 20 20 30 30 30 30 
16 16 16 16 30 30 30 30 
16 16 16 16 30 30 30 30 
