P2
# This generated pgm has been brought to you through Emile Bonmarriage and Lucas Pereira's hardwork
8 8
255
15 15 15 15 30 30 30 30 
15 15 15 15 30 30 30 30 
15 15 15 15 30 30 30 30 
15 15 15 15 30 30 30 30 
10 10 20 20 30 30 30 30 
10 10 20 20 30 30 30 30 
11 22 11 22 30 30 30 30 
11 22 11 22 30 30 30 30 
